<svg xmlns="http://www.w3.org/2000/svg" xmlns:xlink="http://www.w3.org/1999/xlink" viewBox="0 0 2705.76 1421.22"><defs><style>.cls-1{fill:#f1e2cf;}.cls-2{mask:url(#mask);}.cls-12,.cls-15,.cls-21,.cls-23,.cls-26,.cls-3,.cls-5,.cls-8{fill:#f2f2f2;}.cls-3{opacity:0.38;}.cls-4{mask:url(#mask-2);}.cls-5{opacity:0.5;}.cls-6{mask:url(#mask-3);}.cls-7{mask:url(#mask-4);}.cls-8{opacity:0.41;}.cls-9{mask:url(#mask-5);}.cls-10{mask:url(#mask-6);}.cls-11{mask:url(#mask-7);}.cls-12{opacity:0.55;}.cls-13{mask:url(#mask-8);}.cls-14{mask:url(#mask-9);}.cls-15{opacity:0.52;}.cls-16{mask:url(#mask-10);}.cls-17{mask:url(#mask-11);}.cls-18{mask:url(#mask-12);}.cls-19{mask:url(#mask-13);}.cls-20{mask:url(#mask-14);}.cls-21{opacity:0.53;}.cls-22{mask:url(#mask-15);}.cls-23{opacity:0.54;}.cls-24{mask:url(#mask-16);}.cls-25{mask:url(#mask-17);}.cls-26{opacity:0.58;}.cls-27{mask:url(#mask-18);}.cls-28{mask:url(#mask-19);}.cls-29{mask:url(#mask-20);}.cls-30{mask:url(#mask-21);}.cls-31{mask:url(#mask-22);}.cls-32{mask:url(#mask-23);}.cls-33{mask:url(#mask-24);}.cls-34{mask:url(#mask-25);}.cls-35{fill:#fbb317;}.cls-36{fill:#4779bd;}.cls-37{fill:#f26f8a;}.cls-38{fill:#f6a1ae;}.cls-39{filter:url(#luminosity-invert-noclip-25);}.cls-40{filter:url(#luminosity-invert-noclip-24);}.cls-41{filter:url(#luminosity-invert-noclip-23);}.cls-42{filter:url(#luminosity-invert-noclip-22);}.cls-43{filter:url(#luminosity-invert-noclip-21);}.cls-44{filter:url(#luminosity-invert-noclip-20);}.cls-45{filter:url(#luminosity-invert-noclip-19);}.cls-46{filter:url(#luminosity-invert-noclip-18);}.cls-47{filter:url(#luminosity-invert-noclip-17);}.cls-48{filter:url(#luminosity-invert-noclip-16);}.cls-49{filter:url(#luminosity-invert-noclip-15);}.cls-50{filter:url(#luminosity-invert-noclip-14);}.cls-51{filter:url(#luminosity-invert-noclip-13);}.cls-52{filter:url(#luminosity-invert-noclip-12);}.cls-53{filter:url(#luminosity-invert-noclip-11);}.cls-54{filter:url(#luminosity-invert-noclip-10);}.cls-55{filter:url(#luminosity-invert-noclip-9);}.cls-56{filter:url(#luminosity-invert-noclip-8);}.cls-57{filter:url(#luminosity-invert-noclip-7);}.cls-58{filter:url(#luminosity-invert-noclip-6);}.cls-59{filter:url(#luminosity-invert-noclip-5);}.cls-60{filter:url(#luminosity-invert-noclip-4);}.cls-61{filter:url(#luminosity-invert-noclip-3);}.cls-62{filter:url(#luminosity-invert-noclip-2);}.cls-63{filter:url(#luminosity-invert-noclip);}</style><filter id="luminosity-invert-noclip" x="1529.98" y="-8732" width="304.27" height="32766" filterUnits="userSpaceOnUse" color-interpolation-filters="sRGB"><feColorMatrix values="-1 0 0 0 1 0 -1 0 0 1 0 0 -1 0 1 0 0 0 1 0" result="invert"/><feFlood flood-color="#fff" result="bg"/><feBlend in="invert" in2="bg"/></filter><mask id="mask" x="2259.95" y="-8587.64" width="304.27" height="32766" maskUnits="userSpaceOnUse"><g class="cls-63"/></mask><filter id="luminosity-invert-noclip-2" x="197.4" y="-8732" width="152.27" height="32766" filterUnits="userSpaceOnUse" color-interpolation-filters="sRGB"><feColorMatrix values="-1 0 0 0 1 0 -1 0 0 1 0 0 -1 0 1 0 0 0 1 0" result="invert"/><feFlood flood-color="#fff" result="bg"/><feBlend in="invert" in2="bg"/></filter><mask id="mask-2" x="927.37" y="-8587.64" width="152.27" height="32766" maskUnits="userSpaceOnUse"><g class="cls-62"/></mask><filter id="luminosity-invert-noclip-3" x="1427.39" y="-8732" width="307.74" height="32766" filterUnits="userSpaceOnUse" color-interpolation-filters="sRGB"><feColorMatrix values="-1 0 0 0 1 0 -1 0 0 1 0 0 -1 0 1 0 0 0 1 0" result="invert"/><feFlood flood-color="#fff" result="bg"/><feBlend in="invert" in2="bg"/></filter><mask id="mask-3" x="2157.36" y="-8587.64" width="307.74" height="32766" maskUnits="userSpaceOnUse"><g class="cls-61"/></mask><filter id="luminosity-invert-noclip-4" x="-78.4" y="-8732" width="375.08" height="32766" filterUnits="userSpaceOnUse" color-interpolation-filters="sRGB"><feColorMatrix values="-1 0 0 0 1 0 -1 0 0 1 0 0 -1 0 1 0 0 0 1 0" result="invert"/><feFlood flood-color="#fff" result="bg"/><feBlend in="invert" in2="bg"/></filter><mask id="mask-4" x="651.56" y="-8587.64" width="375.08" height="32766" maskUnits="userSpaceOnUse"><g class="cls-60"/></mask><filter id="luminosity-invert-noclip-5" x="1340.2" y="-8732" width="98.43" height="32766" filterUnits="userSpaceOnUse" color-interpolation-filters="sRGB"><feColorMatrix values="-1 0 0 0 1 0 -1 0 0 1 0 0 -1 0 1 0 0 0 1 0" result="invert"/><feFlood flood-color="#fff" result="bg"/><feBlend in="invert" in2="bg"/></filter><mask id="mask-5" x="2070.16" y="-8587.64" width="98.43" height="32766" maskUnits="userSpaceOnUse"><g class="cls-59"/></mask><filter id="luminosity-invert-noclip-6" x="1626.9" y="-8732" width="348.9" height="32766" filterUnits="userSpaceOnUse" color-interpolation-filters="sRGB"><feColorMatrix values="-1 0 0 0 1 0 -1 0 0 1 0 0 -1 0 1 0 0 0 1 0" result="invert"/><feFlood flood-color="#fff" result="bg"/><feBlend in="invert" in2="bg"/></filter><mask id="mask-6" x="2356.86" y="-8587.64" width="348.9" height="32766" maskUnits="userSpaceOnUse"><g class="cls-58"/></mask><filter id="luminosity-invert-noclip-7" x="1499.98" y="-8732" width="386.58" height="32766" filterUnits="userSpaceOnUse" color-interpolation-filters="sRGB"><feColorMatrix values="-1 0 0 0 1 0 -1 0 0 1 0 0 -1 0 1 0 0 0 1 0" result="invert"/><feFlood flood-color="#fff" result="bg"/><feBlend in="invert" in2="bg"/></filter><mask id="mask-7" x="2229.94" y="-8587.64" width="386.58" height="32766" maskUnits="userSpaceOnUse"><g class="cls-57"/></mask><filter id="luminosity-invert-noclip-8" x="350.01" y="-8732" width="386.58" height="32766" filterUnits="userSpaceOnUse" color-interpolation-filters="sRGB"><feColorMatrix values="-1 0 0 0 1 0 -1 0 0 1 0 0 -1 0 1 0 0 0 1 0" result="invert"/><feFlood flood-color="#fff" result="bg"/><feBlend in="invert" in2="bg"/></filter><mask id="mask-8" x="1079.98" y="-8587.64" width="386.58" height="32766" maskUnits="userSpaceOnUse"><g class="cls-56"/></mask><filter id="luminosity-invert-noclip-9" x="273.06" y="-8732" width="417.14" height="32766" filterUnits="userSpaceOnUse" color-interpolation-filters="sRGB"><feColorMatrix values="-1 0 0 0 1 0 -1 0 0 1 0 0 -1 0 1 0 0 0 1 0" result="invert"/><feFlood flood-color="#fff" result="bg"/><feBlend in="invert" in2="bg"/></filter><mask id="mask-9" x="1003.02" y="-8587.64" width="417.14" height="32766" maskUnits="userSpaceOnUse"><g class="cls-55"/></mask><filter id="luminosity-invert-noclip-10" x="909.13" y="-8732" width="368.96" height="32766" filterUnits="userSpaceOnUse" color-interpolation-filters="sRGB"><feColorMatrix values="-1 0 0 0 1 0 -1 0 0 1 0 0 -1 0 1 0 0 0 1 0" result="invert"/><feFlood flood-color="#fff" result="bg"/><feBlend in="invert" in2="bg"/></filter><mask id="mask-10" x="1639.09" y="-8587.64" width="368.96" height="32766" maskUnits="userSpaceOnUse"><g class="cls-54"/></mask><filter id="luminosity-invert-noclip-11" x="1108.93" y="-8732" width="371.85" height="32766" filterUnits="userSpaceOnUse" color-interpolation-filters="sRGB"><feColorMatrix values="-1 0 0 0 1 0 -1 0 0 1 0 0 -1 0 1 0 0 0 1 0" result="invert"/><feFlood flood-color="#fff" result="bg"/><feBlend in="invert" in2="bg"/></filter><mask id="mask-11" x="1838.89" y="-8587.64" width="371.85" height="32766" maskUnits="userSpaceOnUse"><g class="cls-53"/></mask><filter id="luminosity-invert-noclip-12" x="622.7" y="-8732" width="177.43" height="32766" filterUnits="userSpaceOnUse" color-interpolation-filters="sRGB"><feColorMatrix values="-1 0 0 0 1 0 -1 0 0 1 0 0 -1 0 1 0 0 0 1 0" result="invert"/><feFlood flood-color="#fff" result="bg"/><feBlend in="invert" in2="bg"/></filter><mask id="mask-12" x="1352.66" y="-8587.64" width="177.43" height="32766" maskUnits="userSpaceOnUse"><g class="cls-52"/></mask><filter id="luminosity-invert-noclip-13" x="1185.37" y="-8732" width="159.16" height="32766" filterUnits="userSpaceOnUse" color-interpolation-filters="sRGB"><feColorMatrix values="-1 0 0 0 1 0 -1 0 0 1 0 0 -1 0 1 0 0 0 1 0" result="invert"/><feFlood flood-color="#fff" result="bg"/><feBlend in="invert" in2="bg"/></filter><mask id="mask-13" x="1915.33" y="-8587.64" width="159.16" height="32766" maskUnits="userSpaceOnUse"><g class="cls-51"/></mask><filter id="luminosity-invert-noclip-14" x="-87.97" y="-8732" width="181.95" height="32766" filterUnits="userSpaceOnUse" color-interpolation-filters="sRGB"><feColorMatrix values="-1 0 0 0 1 0 -1 0 0 1 0 0 -1 0 1 0 0 0 1 0" result="invert"/><feFlood flood-color="#fff" result="bg"/><feBlend in="invert" in2="bg"/></filter><mask id="mask-14" x="641.99" y="-8587.64" width="181.95" height="32766" maskUnits="userSpaceOnUse"><g class="cls-50"/></mask><filter id="luminosity-invert-noclip-15" x="174.92" y="-8732" width="159.91" height="32766" filterUnits="userSpaceOnUse" color-interpolation-filters="sRGB"><feColorMatrix values="-1 0 0 0 1 0 -1 0 0 1 0 0 -1 0 1 0 0 0 1 0" result="invert"/><feFlood flood-color="#fff" result="bg"/><feBlend in="invert" in2="bg"/></filter><mask id="mask-15" x="904.88" y="-8587.64" width="159.91" height="32766" maskUnits="userSpaceOnUse"><g class="cls-49"/></mask><filter id="luminosity-invert-noclip-16" x="900.52" y="-8732" width="304.85" height="32766" filterUnits="userSpaceOnUse" color-interpolation-filters="sRGB"><feColorMatrix values="-1 0 0 0 1 0 -1 0 0 1 0 0 -1 0 1 0 0 0 1 0" result="invert"/><feFlood flood-color="#fff" result="bg"/><feBlend in="invert" in2="bg"/></filter><mask id="mask-16" x="1630.48" y="-8587.64" width="304.85" height="32766" maskUnits="userSpaceOnUse"><g class="cls-48"/></mask><filter id="luminosity-invert-noclip-17" x="426.73" y="-8732" width="205.38" height="32766" filterUnits="userSpaceOnUse" color-interpolation-filters="sRGB"><feColorMatrix values="-1 0 0 0 1 0 -1 0 0 1 0 0 -1 0 1 0 0 0 1 0" result="invert"/><feFlood flood-color="#fff" result="bg"/><feBlend in="invert" in2="bg"/></filter><mask id="mask-17" x="1156.69" y="-8587.64" width="205.38" height="32766" maskUnits="userSpaceOnUse"><g class="cls-47"/></mask><filter id="luminosity-invert-noclip-18" x="1365.26" y="-8732" width="269.7" height="32766" filterUnits="userSpaceOnUse" color-interpolation-filters="sRGB"><feColorMatrix values="-1 0 0 0 1 0 -1 0 0 1 0 0 -1 0 1 0 0 0 1 0" result="invert"/><feFlood flood-color="#fff" result="bg"/><feBlend in="invert" in2="bg"/></filter><mask id="mask-18" x="2095.22" y="-8587.64" width="269.7" height="32766" maskUnits="userSpaceOnUse"><g class="cls-46"/></mask><filter id="luminosity-invert-noclip-19" x="695.56" y="-8732" width="353.25" height="32766" filterUnits="userSpaceOnUse" color-interpolation-filters="sRGB"><feColorMatrix values="-1 0 0 0 1 0 -1 0 0 1 0 0 -1 0 1 0 0 0 1 0" result="invert"/><feFlood flood-color="#fff" result="bg"/><feBlend in="invert" in2="bg"/></filter><mask id="mask-19" x="1425.53" y="-8587.64" width="353.25" height="32766" maskUnits="userSpaceOnUse"><g class="cls-45"/></mask><filter id="luminosity-invert-noclip-20" x="751.2" y="-8732" width="98.43" height="32766" filterUnits="userSpaceOnUse" color-interpolation-filters="sRGB"><feColorMatrix values="-1 0 0 0 1 0 -1 0 0 1 0 0 -1 0 1 0 0 0 1 0" result="invert"/><feFlood flood-color="#fff" result="bg"/><feBlend in="invert" in2="bg"/></filter><mask id="mask-20" x="1481.16" y="-8587.64" width="98.43" height="32766" maskUnits="userSpaceOnUse"><g class="cls-44"/></mask><filter id="luminosity-invert-noclip-21" x="916.18" y="-8732" width="177.43" height="32766" filterUnits="userSpaceOnUse" color-interpolation-filters="sRGB"><feColorMatrix values="-1 0 0 0 1 0 -1 0 0 1 0 0 -1 0 1 0 0 0 1 0" result="invert"/><feFlood flood-color="#fff" result="bg"/><feBlend in="invert" in2="bg"/></filter><mask id="mask-21" x="1646.14" y="-8587.64" width="177.43" height="32766" maskUnits="userSpaceOnUse"><g class="cls-43"/></mask><filter id="luminosity-invert-noclip-22" x="602.07" y="-8732" width="269.7" height="32766" filterUnits="userSpaceOnUse" color-interpolation-filters="sRGB"><feColorMatrix values="-1 0 0 0 1 0 -1 0 0 1 0 0 -1 0 1 0 0 0 1 0" result="invert"/><feFlood flood-color="#fff" result="bg"/><feBlend in="invert" in2="bg"/></filter><mask id="mask-22" x="1332.03" y="-8587.64" width="269.7" height="32766" maskUnits="userSpaceOnUse"><g class="cls-42"/></mask><filter id="luminosity-invert-noclip-23" x="1093.96" y="-8732" width="152.27" height="32766" filterUnits="userSpaceOnUse" color-interpolation-filters="sRGB"><feColorMatrix values="-1 0 0 0 1 0 -1 0 0 1 0 0 -1 0 1 0 0 0 1 0" result="invert"/><feFlood flood-color="#fff" result="bg"/><feBlend in="invert" in2="bg"/></filter><mask id="mask-23" x="1823.92" y="-8587.64" width="152.27" height="32766" maskUnits="userSpaceOnUse"><g class="cls-41"/></mask><filter id="luminosity-invert-noclip-24" x="102.9" y="-8732" width="304.27" height="32766" filterUnits="userSpaceOnUse" color-interpolation-filters="sRGB"><feColorMatrix values="-1 0 0 0 1 0 -1 0 0 1 0 0 -1 0 1 0 0 0 1 0" result="invert"/><feFlood flood-color="#fff" result="bg"/><feBlend in="invert" in2="bg"/></filter><mask id="mask-24" x="832.86" y="-8587.64" width="304.27" height="32766" maskUnits="userSpaceOnUse"><g class="cls-40"/></mask><filter id="luminosity-invert-noclip-25" x="-432.24" y="-8732" width="307.74" height="32766" filterUnits="userSpaceOnUse" color-interpolation-filters="sRGB"><feColorMatrix values="-1 0 0 0 1 0 -1 0 0 1 0 0 -1 0 1 0 0 0 1 0" result="invert"/><feFlood flood-color="#fff" result="bg"/><feBlend in="invert" in2="bg"/></filter><mask id="mask-25" x="297.72" y="-8587.64" width="307.74" height="32766" maskUnits="userSpaceOnUse"><g class="cls-39"/></mask></defs><g id="Layer_1" data-name="Layer 1"><rect class="cls-1" x="729.96" y="144.36" width="1920" height="1079.47"/><g class="cls-2"><path class="cls-3" d="M1634.29,894.86s66.69-5.37,104.54,26.37c27.64,23.18,67.31,87,86.7,119.71,11.86,20,11.76,45.24-1.14,64.62-8.5,12.77-22.68,23.36-46.34,23.62-42.23.45-138.23-34.4-191.81-55.25a87.81,87.81,0,0,1-55.48-71.49c-2.31-19.8,0-41.17,14.06-57.52C1580.12,903.86,1634.29,894.86,1634.29,894.86Z" transform="translate(729.96 144.36)"/></g><g class="cls-4"><path class="cls-5" d="M287.76,481.41s-50.32-19.25-82.88,38.48c-22.44,39.77,10.64,85.87,33.38,110.69,15.79,17.23,37.55,28.06,60.88,29.31a76.42,76.42,0,0,0,24.14-2.36C355.84,648.65,372.12,528.77,287.76,481.41Z" transform="translate(729.96 144.36)"/></g><g class="cls-6"><path class="cls-5" d="M1735.08,424.54s6.13-97.53-111.41-122.72c-81-17.37-143,64.82-173.64,117.61-21.3,36.63-28.3,80.17-17.86,121.24a138.49,138.49,0,0,0,17.13,40.53C1482.26,632.78,1698.65,596.21,1735.08,424.54Z" transform="translate(729.96 144.36)"/></g><g class="cls-7"><path class="cls-8" d="M-73,681.3c9.15-14.37,25.88-22,42.84-20.44,44.81,4.23,154,16.74,216.42,42.89,80,33.48,128.47,82.64,104,104.53s-132.81,12.14-132.81,12.14S10,791-28.59,758.6C-59.65,732.49-91.35,710.14-73,681.3Z" transform="translate(729.96 144.36)"/></g><g class="cls-9"><path class="cls-5" d="M1398.61,788.28s-32.53-12.44-53.58,24.88c-14.51,25.71,6.88,55.51,21.58,71.56A57.83,57.83,0,0,0,1406,903.66a49.43,49.43,0,0,0,15.61-1.52C1442.62,896.4,1453.14,818.9,1398.61,788.28Z" transform="translate(729.96 144.36)"/></g><g class="cls-10"><path class="cls-8" d="M1627.86,759.05c-3.56-16.66,3-33.87,16.17-44.63,34.88-28.44,121.39-96.14,184.24-121.37,80.47-32.3,149.51-31.32,147.48,1.42s-86.08,101.87-86.08,101.87S1764,779,1713.73,783C1673.28,786.16,1635,792.49,1627.86,759.05Z" transform="translate(729.96 144.36)"/></g><g class="cls-11"><path class="cls-12" d="M1504.57,40.59s-32.6,58.8,76,155c60,53.17,146.65,69.77,212.14,74,79.75,5.13,124.61-90.38,69.58-148.34-14.3-15.06-33.83-29.6-60.18-42.65,0,0-97.62-10.42-136.91-96S1495-31.53,1504.57,40.59Z" transform="translate(729.96 144.36)"/></g><g class="cls-13"><path class="cls-12" d="M354.61,919.5s-32.61,58.81,75.95,155c60,53.17,146.65,69.77,212.13,74,79.76,5.14,124.61-90.38,69.58-148.33-14.3-15.07-33.82-29.6-60.18-42.65,0,0-97.61-10.42-136.91-96S345.06,847.39,354.61,919.5Z" transform="translate(729.96 144.36)"/></g><g class="cls-14"><path class="cls-15" d="M377,158.12c-40.62-8.39-81.65,13.37-96.47,52.11a106.43,106.43,0,0,0-7.21,45.85c4.08,56.6,81,157.24,125.44,163.16s143.57-3,168.73-37c21.75-29.43,81-86.71,97.68-94.72s52-124.32-11-130.24-120.91,30.81-172.61,25C450.65,178.85,411.79,165.3,377,158.12Z" transform="translate(729.96 144.36)"/></g><g class="cls-16"><path class="cls-15" d="M1067,1222.06c15.33,38.54,56.06,60.85,96.56,51.93a106.61,106.61,0,0,0,42.27-19.18c45-34.54,86.79-154.16,67.32-194.5S1191.78,942,1149.51,939.72c-36.55-2-117-20-132.83-29.51S884.26,935.15,914,991s92.21,84.06,115.81,130.43C1043.85,1149.14,1053.9,1189,1067,1222.06Z" transform="translate(729.96 144.36)"/></g><g class="cls-17"><path class="cls-15" d="M1400.33,154s-83.95-54.11-128.68-16.82-79,132.84-124.16,142.87-59.53,114.17,6,134.65c45.69,14.28,125.06,1.4,168.93-7.7a106.34,106.34,0,0,0,53-28.38c18.28-18,44.63-44.08,64.8-64.71C1474.5,278.86,1527.14,207.76,1400.33,154Z" transform="translate(729.96 144.36)"/></g><g class="cls-18"><path class="cls-15" d="M632.94,823.26s13.74,43.47,40.32,43.4,66.46-23.67,85.24-14,54.18-22.78,37.12-49.06c-11.9-18.33-43.54-36.92-61.61-46.5a48.57,48.57,0,0,0-26.89-5.48c-11.66,1-28.53,2.5-41.62,3.87C643.24,757.79,604,767.44,632.94,823.26Z" transform="translate(729.96 144.36)"/></g><g class="cls-19"><path class="cls-15" d="M1267,713s61.18-6.46,68.24-41.63-13.39-94.26,4.39-116.5-15.54-77.77-54.88-62.29c-27.44,10.8-60.55,47.63-78.08,68.95a65.53,65.53,0,0,0-14.48,34.08c-1.82,15.69-4.38,38.39-6.09,56.08C1183.19,681.73,1185.39,736.18,1267,713Z" transform="translate(729.96 144.36)"/></g><g class="cls-20"><path class="cls-21" d="M-82.25,886.93s41.44-51.8,75.48-40,44.41,65.12,56.25,71,41.44,34,44.4,57.73-58.27,65.85-108.32,41.06S-103,928.37-82.25,886.93Z" transform="translate(729.96 144.36)"/></g><g class="cls-22"><path class="cls-23" d="M184.35,1083.2s-22.78-82.82,2.45-91.87,58.77-32.56,90.45,61.22,57.58,196,57.58,196-3.82,41.88-49.92,23.85-62.21-66.16-62.21-66.16Z" transform="translate(729.96 144.36)"/></g><g class="cls-24"><path class="cls-23" d="M971.82,813.3S892.66,780,901.15,754.53s10.77-66.31,104.06-33.18,189.58,76,189.58,76,30.54,28.91-12.15,54-90.46,8-90.46,8Z" transform="translate(729.96 144.36)"/></g><g class="cls-25"><path class="cls-26" d="M537.91,480.37s-69.43-6.6-85.27,97.1c-9.42,61.72-18.53,98.9-24.36,118.89a38.65,38.65,0,0,0,10,38.36c20,19.72,55.73,44,93.08,16.35C588,709.16,632.22,646.26,632.11,589.19S608.22,475.05,537.91,480.37Z" transform="translate(729.96 144.36)"/></g><g class="cls-27"><path class="cls-23" d="M1415.35,1149.93s-63.78-57.53-47.4-78.74,32-59.08,109.18,2.89,154,134.13,154,134.13,19.33,37.35-29.23,47-88-22.26-88-22.26Z" transform="translate(729.96 144.36)"/></g><g class="cls-28"><path class="cls-12" d="M752.32,660.46s40.5,47.8,158.08-14.9c65-34.67,106.84-104.58,131.26-160.17,29.73-67.71-38.61-138.29-106.17-109.55-17.56,7.47-36.32,19.66-56,38.29,0,0-40,81.5-126.41,87.44S687,645,752.32,660.46Z" transform="translate(729.96 144.36)"/></g><g class="cls-29"><path class="cls-5" d="M809.61,261.09S777.08,248.65,756,286c-14.5,25.72,6.88,55.52,21.58,71.56a57.84,57.84,0,0,0,39.36,19,49.09,49.09,0,0,0,15.6-1.53C853.62,369.2,864.15,291.7,809.61,261.09Z" transform="translate(729.96 144.36)"/></g><g class="cls-30"><path class="cls-15" d="M926.42,178.19s13.74,43.47,40.32,43.4,66.46-23.66,85.24-14,54.18-22.78,37.12-49.06c-11.9-18.33-43.54-36.92-61.61-46.5a48.48,48.48,0,0,0-26.89-5.47c-11.66,1-28.53,2.49-41.62,3.86C936.72,112.72,897.52,122.37,926.42,178.19Z" transform="translate(729.96 144.36)"/></g><g class="cls-31"><path class="cls-23" d="M652.15,1.16s-63.77-57.53-47.39-78.74,32-59.08,109.18,2.89S868,59.44,868,59.44s19.33,37.35-29.23,47-88-22.26-88-22.26Z" transform="translate(729.96 144.36)"/></g><g class="cls-32"><path class="cls-5" d="M1184.32-88.14s-50.33-19.24-82.89,38.48C1079-9.88,1112.08,36.22,1134.82,61c15.78,17.23,37.54,28.06,60.87,29.31A76.48,76.48,0,0,0,1219.84,88C1252.4,79.11,1268.68-40.78,1184.32-88.14Z" transform="translate(729.96 144.36)"/></g><g class="cls-33"><path class="cls-3" d="M207.2-144s66.69-5.37,104.55,26.38c27.64,23.17,67.3,87,86.69,119.7,11.87,20,11.76,45.24-1.14,64.62C388.8,79.46,374.62,90.05,351,90.31c-42.23.45-138.24-34.4-191.81-55.25a87.8,87.8,0,0,1-55.48-71.49c-2.31-19.8,0-41.17,14-57.52C153-135,207.2-144,207.2-144Z" transform="translate(729.96 144.36)"/></g><g class="cls-34"><path class="cls-5" d="M-124.55,222.62S-118.42,125.09-236,99.89c-81-17.36-143,64.83-173.65,117.61-21.3,36.64-28.29,80.17-17.85,121.24a138.08,138.08,0,0,0,17.12,40.53C-377.37,430.86-161,394.28-124.55,222.62Z" transform="translate(729.96 144.36)"/></g></g><g id="Layer_4" data-name="Layer 4"><path class="cls-35" d="M-730,526.24s17.22,57.66,61.78,61.26S-607,526.24-607,526.24s19.67-247.86,231.52-231c0,0,173.62,45.5,172.43,218.34s105.64,144,105.64,144,86.32-11.77,84.72-146.4S120,418.36,120,418.36s91,29.49,132.87-83.62c20-54.09,78-84.59,133.8-69.46,24.46,6.63,52.48,20,84,43.54C584.2,393.77,580.54,782.1,576.48,904a145.44,145.44,0,0,0,24.87,87c16.56,24.26,39.83,46.77,66.66,39.75,17.25-4.52,31.59-17.18,43.12-32.3,25.85-33.88,35.37-77.45,27.23-119.25-24.51-126-88.91-480.29-52.09-546.14l.93-.93c36.89-35.68,98.69-14.8,106.75,35.82A728.58,728.58,0,0,1,797,572.63s-5.92,59.66,48.36,62.3c31.66,1.55,43.23-19.91,47.37-38.06a82.54,82.54,0,0,0,.63-32.73c-10.27-58.43-68.91-399.23-42.7-418.84,28.67-21.46,80-53.64,64.44-229.3L-729-83.56Z" transform="translate(729.96 144.36)"/></g><g id="Layer_5" data-name="Layer 5"><path class="cls-36" d="M-623.63,362.31s102.36,123.36,65.14,371.14c-.62,4.07-1.06,8.16-1.29,12.28-1.21,21.13-2.67,82.42,20.6,87,28.14,5.5,44.92-19.75,44.65-80.76s-38.7-315.68,0-351,140.17-4.39,137.62,87.3,81.65,391.25,76.9,451.93,30.26,135.83,96.12,112S-131,861.27-140.76,790.93s-22.14-153.93-22-178.4c.29-35.91,7.07-71.38,59.44-74s83.92,77.74,130.4,87,86.28-2.74,110.73-38.12C161.3,553.54,108.25,292,122.54,274.59,140,253.36,259,194.26,295.16,326.64c29.61,108.51,27.08,300.21,25.21,365.83a149.61,149.61,0,0,0,17.51,75.36c14,26,37.79,51.36,76.77,48.9,68.21-4.3,54.27-96.61,49.72-119.62-1.2-6-2.23-12.11-3.16-18.2-8.28-54.69-36.82-263.57,7.46-282.09.71-.3,1.41-.58,2.11-.86,32.09-12.69,67.16,9.4,71.12,44.14C545,466.85,552,501.63,568,506.28c26.42,7.69,58.52-7.44,50.59-97.69s35.1-87.49,61.76-90c26-2.41,85.22-60.15,66.14-135.76A98.79,98.79,0,0,1,743.77,168c-2.47-25.39-5.76-95.58,33.41-93.72,0,0,25.7-3.17,27.55,33.62,1.38,27.45-3.81,81.91-6.53,107.8a49.4,49.4,0,0,0,10.7,36.64c4.68,5.66,10.55,10.09,17.38,9.75,18.19-.9,27.42-24.78,27.13-32.08S834.73,84.11,848.8,85.35c24.9,2.2,9.48-68.48,32.48-79.13C903.69-4.16,914.84-85,914.84-85H-622Z" transform="translate(729.96 144.36)"/></g><g id="Layer_3" data-name="Layer 3"><path class="cls-37" d="M-568.6-89S-602.48,76.87-504,114.66c2,.78,4.1,1.44,6.18,2.07,10.29,3.11,73.79,28.28,64.5,174.65-8.57,135-52.95,615.2-66.24,757.93-4.36,46.89,22.09,91.69,65.61,108.71a102.75,102.75,0,0,0,29.47,6.75c22.6,1.78,42.5-6.85,59-19.26,34.51-25.88,53.64-67.69,52.09-111L-317.16,367.4c-1.86-52.09,39-96.34,90.61-96.57,18.42-.08,38.23,5.44,58.11,20.55,62.78,47.75,36.86,431,26.17,560.61-3.62,44,16.07,86.9,52.37,111.46,13.51,9.14,29.44,15.88,47.78,17.31,32.06,2.49,52.59-19.36,65.38-43.49,14.29-27,19.25-58,15-88.27C22.81,738.94-28.5,358-2.41,331.23,28.12,300,125.45,223,202.37,291.38c62.69,55.7,95,79.13,141.93,82.17a109.13,109.13,0,0,1,97,76.42c13.53,43.3,21.37,110.74,12.15,215.78,0,0-9.93,94.64,82.71,104.7,55,6,69.8-36,72.74-71a171.22,171.22,0,0,0-5.82-59.88c-16.85-61-75.13-289.22-27.87-370.16,38.34-65.64,118.47-110.8,163.11-132a164.52,164.52,0,0,0,79.22-80.57c15.66-34.51,27.49-82.72,20.5-145.4" transform="translate(729.96 144.36)"/></g><g id="Layer_2" data-name="Layer 2"><path class="cls-38" d="M-626,327.2s42.45,66.54,92.57,61.64a44.35,44.35,0,0,0,5-.82c12.47-2.66,70.26-16.59,63,162.7,0,0,7.41,93.95,69.24,90.61,30.92-1.67,46.2-22.77,53.75-43.45a106.77,106.77,0,0,0,4.3-56.3c-8.32-44.27-27.64-169.21,18.49-171.73,0,0,70.64-16.87,75.37,32,0,0-.15,335.33,0,426a105.65,105.65,0,0,0,9.66,44.57c7.92,17,21.66,34.29,44.52,32.65,46.4-3.34,47.64-65.47,47.1-70.88C-143.51,829.75-155.18,601-159.3,520c-1.4-27.4,19.58-51.31,47-52.32a46.84,46.84,0,0,1,11.9,1.07C-68,476-49.8,490.12-46.9,505.86c0,0,15.88,49.41,3.74,105.35a89.91,89.91,0,0,0,5.16,55c9,20.64,27.17,41.92,63.71,44.53,43.07,3.08,62-30.16,70.21-58a149.78,149.78,0,0,0,5.84-48.52L93.71,401.68c-1.14-28.52,9.35-56.16,29.75-76.11C136.17,313.13,149.55,314.28,167,313c17.92-1.28,31.48,6.85,41.2,16.77a72.57,72.57,0,0,1,20.3,48.32c2.38,68.77,10.55,328,2.85,441.42-2.55,37.59,13.55,74.34,43.65,97,20.65,15.55,48.51,25.28,84.38,15.47l2.86-.8c62.15-18,100-80.87,87.87-144.43-21.21-111.46-68.44-385.08-33.29-444,37.93-63.56,130.15-66.3,156.23-65.75a81.82,81.82,0,0,0,26.2-3.59c27.88-8.76,77.8-37.13,92.3-128.82,0,0,29.64-150.94,98.25-153.39S903.14-50.8,908.36-82H-572Z" transform="translate(729.96 144.36)"/></g></svg>