<?xml version="1.0" encoding="utf-8"?>
<!-- Generator: Adobe Illustrator 25.2.1, SVG Export Plug-In . SVG Version: 6.00 Build 0)  -->
<svg version="1.1" id="Layer_1" xmlns="http://www.w3.org/2000/svg" xmlns:xlink="http://www.w3.org/1999/xlink" x="0px" y="0px"
	 viewBox="0 0 1920 1793" style="enable-background:new 0 0 1920 1793;" xml:space="preserve">
<style type="text/css">
	.st0{fill:#F1E2CF;}
	.st1{filter:url(#Adobe_OpacityMaskFilter);}
	.st2{opacity:0.38;mask:url(#SVGID_1_);fill:#F2F2F2;}
	.st3{filter:url(#Adobe_OpacityMaskFilter_1_);}
	.st4{opacity:0.5;mask:url(#SVGID_2_);fill:#F2F2F2;}
	.st5{filter:url(#Adobe_OpacityMaskFilter_2_);}
	.st6{opacity:0.5;mask:url(#SVGID_3_);fill:#F2F2F2;}
	.st7{filter:url(#Adobe_OpacityMaskFilter_3_);}
	.st8{opacity:0.41;mask:url(#SVGID_4_);fill:#F2F2F2;}
	.st9{filter:url(#Adobe_OpacityMaskFilter_4_);}
	.st10{opacity:0.5;mask:url(#SVGID_5_);fill:#F2F2F2;}
	.st11{filter:url(#Adobe_OpacityMaskFilter_5_);}
	.st12{opacity:0.55;mask:url(#SVGID_6_);fill:#F2F2F2;}
	.st13{filter:url(#Adobe_OpacityMaskFilter_6_);}
	.st14{opacity:0.55;mask:url(#SVGID_7_);fill:#F2F2F2;}
	.st15{filter:url(#Adobe_OpacityMaskFilter_7_);}
	.st16{opacity:0.52;mask:url(#SVGID_8_);fill:#F2F2F2;}
	.st17{filter:url(#Adobe_OpacityMaskFilter_8_);}
	.st18{opacity:0.52;mask:url(#SVGID_9_);fill:#F2F2F2;}
	.st19{filter:url(#Adobe_OpacityMaskFilter_9_);}
	.st20{opacity:0.52;mask:url(#SVGID_10_);fill:#F2F2F2;}
	.st21{filter:url(#Adobe_OpacityMaskFilter_10_);}
	.st22{opacity:0.52;mask:url(#SVGID_11_);fill:#F2F2F2;}
	.st23{filter:url(#Adobe_OpacityMaskFilter_11_);}
	.st24{opacity:0.52;mask:url(#SVGID_12_);fill:#F2F2F2;}
	.st25{filter:url(#Adobe_OpacityMaskFilter_12_);}
	.st26{opacity:0.53;mask:url(#SVGID_13_);fill:#F2F2F2;}
	.st27{filter:url(#Adobe_OpacityMaskFilter_13_);}
	.st28{opacity:0.54;mask:url(#SVGID_14_);fill:#F2F2F2;}
	.st29{filter:url(#Adobe_OpacityMaskFilter_14_);}
	.st30{opacity:0.54;mask:url(#SVGID_15_);fill:#F2F2F2;}
	.st31{filter:url(#Adobe_OpacityMaskFilter_15_);}
	.st32{opacity:0.58;mask:url(#SVGID_16_);fill:#F2F2F2;}
	.st33{filter:url(#Adobe_OpacityMaskFilter_16_);}
	.st34{opacity:0.54;mask:url(#SVGID_17_);fill:#F2F2F2;}
	.st35{filter:url(#Adobe_OpacityMaskFilter_17_);}
	.st36{opacity:0.5;mask:url(#SVGID_18_);fill:#F2F2F2;}
	.st37{filter:url(#Adobe_OpacityMaskFilter_18_);}
	.st38{opacity:0.5;mask:url(#SVGID_19_);fill:#F2F2F2;}
	.st39{filter:url(#Adobe_OpacityMaskFilter_19_);}
	.st40{opacity:0.38;mask:url(#SVGID_20_);fill:#F2F2F2;}
	.st41{filter:url(#Adobe_OpacityMaskFilter_20_);}
	.st42{opacity:0.55;mask:url(#SVGID_21_);fill:#F2F2F2;}
	.st43{filter:url(#Adobe_OpacityMaskFilter_21_);}
	.st44{opacity:0.54;mask:url(#SVGID_22_);fill:#F2F2F2;}
	.st45{filter:url(#Adobe_OpacityMaskFilter_22_);}
	.st46{opacity:0.54;mask:url(#SVGID_23_);fill:#F2F2F2;}
	.st47{filter:url(#Adobe_OpacityMaskFilter_23_);}
	.st48{opacity:0.53;mask:url(#SVGID_24_);fill:#F2F2F2;}
	.st49{filter:url(#Adobe_OpacityMaskFilter_24_);}
	.st50{opacity:0.38;mask:url(#SVGID_25_);fill:#F2F2F2;}
	.st51{filter:url(#Adobe_OpacityMaskFilter_25_);}
	.st52{opacity:0.5;mask:url(#SVGID_26_);fill:#F2F2F2;}
	.st53{filter:url(#Adobe_OpacityMaskFilter_26_);}
	.st54{opacity:0.55;mask:url(#SVGID_27_);fill:#F2F2F2;}
	.st55{filter:url(#Adobe_OpacityMaskFilter_27_);}
	.st56{opacity:0.52;mask:url(#SVGID_28_);fill:#F2F2F2;}
	.st57{filter:url(#Adobe_OpacityMaskFilter_28_);}
	.st58{opacity:0.5;mask:url(#SVGID_29_);fill:#F2F2F2;}
	.st59{filter:url(#Adobe_OpacityMaskFilter_29_);}
	.st60{opacity:0.54;mask:url(#SVGID_30_);fill:#F2F2F2;}
	.st61{filter:url(#Adobe_OpacityMaskFilter_30_);}
	.st62{opacity:0.38;mask:url(#SVGID_31_);fill:#F2F2F2;}
	.st63{filter:url(#Adobe_OpacityMaskFilter_31_);}
	.st64{opacity:0.52;mask:url(#SVGID_32_);fill:#F2F2F2;}
	.st65{filter:url(#Adobe_OpacityMaskFilter_32_);}
	.st66{opacity:0.5;mask:url(#SVGID_33_);fill:#F2F2F2;}
	.st67{filter:url(#Adobe_OpacityMaskFilter_33_);}
	.st68{opacity:0.54;mask:url(#SVGID_34_);fill:#F2F2F2;}
	.st69{filter:url(#Adobe_OpacityMaskFilter_34_);}
	.st70{opacity:0.52;mask:url(#SVGID_35_);fill:#F2F2F2;}
	.st71{filter:url(#Adobe_OpacityMaskFilter_35_);}
	.st72{opacity:0.52;mask:url(#SVGID_36_);fill:#F2F2F2;}
</style>
<rect x="2" y="0.2" class="st0" width="1920" height="1792.8"/>
<defs>
	<filter id="Adobe_OpacityMaskFilter" filterUnits="userSpaceOnUse" x="-245.4" y="67.8" width="399.7" height="308.3">
		
			<feColorMatrix  type="matrix" values="-1 0 0 0 1  0 -1 0 0 1  0 0 -1 0 1  0 0 0 1 0" color-interpolation-filters="sRGB" result="source"/>
		<feFlood  style="flood-color:white;flood-opacity:1" result="back"/>
		<feBlend  in="source" in2="back" mode="normal"/>
	</filter>
</defs>
<mask maskUnits="userSpaceOnUse" x="-245.4" y="67.8" width="399.7" height="308.3" id="SVGID_1_">
	<g class="st1">
	</g>
</mask>
<path class="st2" d="M-108.3,68.2c0,0,87.6-7,137.3,34.7c36.3,30.4,88.4,114.3,113.9,157.3c15.6,26.3,15.4,59.4-1.5,84.9
	c-11.2,16.8-29.8,30.7-60.9,31c-55.5,0.6-181.6-45.2-252-72.6c-39.8-15.5-67.9-51.6-72.9-93.9c-3-26,0-54.1,18.5-75.6
	C-179.5,80.1-108.3,68.2-108.3,68.2z"/>
<defs>
	<filter id="Adobe_OpacityMaskFilter_1_" filterUnits="userSpaceOnUse" x="199.4" y="891.3" width="152.3" height="181.7">
		
			<feColorMatrix  type="matrix" values="-1 0 0 0 1  0 -1 0 0 1  0 0 -1 0 1  0 0 0 1 0" color-interpolation-filters="sRGB" result="source"/>
		<feFlood  style="flood-color:white;flood-opacity:1" result="back"/>
		<feBlend  in="source" in2="back" mode="normal"/>
	</filter>
</defs>
<mask maskUnits="userSpaceOnUse" x="199.4" y="891.3" width="152.3" height="181.7" id="SVGID_2_">
	<g class="st3">
	</g>
</mask>
<path class="st4" d="M289.7,894.4c0,0-50.3-19.2-82.9,38.5c-22.4,39.8,10.6,85.9,33.4,110.7c15.8,17.2,37.5,28.1,60.9,29.3
	c7.8,0.4,16-0.1,24.1-2.4C357.8,1061.6,374.1,941.7,289.7,894.4z"/>
<defs>
	<filter id="Adobe_OpacityMaskFilter_2_" filterUnits="userSpaceOnUse" x="613.4" y="175.4" width="307.7" height="303.3">
		
			<feColorMatrix  type="matrix" values="-1 0 0 0 1  0 -1 0 0 1  0 0 -1 0 1  0 0 0 1 0" color-interpolation-filters="sRGB" result="source"/>
		<feFlood  style="flood-color:white;flood-opacity:1" result="back"/>
		<feBlend  in="source" in2="back" mode="normal"/>
	</filter>
</defs>
<mask maskUnits="userSpaceOnUse" x="613.4" y="175.4" width="307.7" height="303.3" id="SVGID_3_">
	<g class="st5">
	</g>
</mask>
<path class="st6" d="M921,300.5c0,0,6.1-97.5-111.4-122.7c-81-17.4-142.9,64.8-173.6,117.6c-21.3,36.6-28.3,80.2-17.9,121.2
	c3.5,13.7,8.9,27.6,17.1,40.5C668.2,508.7,884.6,472.2,921,300.5z"/>
<defs>
	<filter id="Adobe_OpacityMaskFilter_3_" filterUnits="userSpaceOnUse" x="1014.7" y="221.1" width="399" height="255.6">
		
			<feColorMatrix  type="matrix" values="-1 0 0 0 1  0 -1 0 0 1  0 0 -1 0 1  0 0 0 1 0" color-interpolation-filters="sRGB" result="source"/>
		<feFlood  style="flood-color:white;flood-opacity:1" result="back"/>
		<feBlend  in="source" in2="back" mode="normal"/>
	</filter>
</defs>
<mask maskUnits="userSpaceOnUse" x="1014.7" y="221.1" width="399" height="255.6" id="SVGID_4_">
	<g class="st7">
	</g>
</mask>
<path class="st8" d="M1015.9,454.2c-4.1-16.6,3.3-35,18.4-47.7c39.8-33.5,138.7-113.6,210.6-147.3c92-43.1,171.1-50.8,168.8-17
	c-2.2,33.8-98.2,115.1-98.2,115.1s-143.7,100.3-201.2,110.7C1068,476.2,1024.2,487.5,1015.9,454.2z"/>
<defs>
	<filter id="Adobe_OpacityMaskFilter_4_" filterUnits="userSpaceOnUse" x="738.2" y="603.2" width="98.4" height="117.5">
		
			<feColorMatrix  type="matrix" values="-1 0 0 0 1  0 -1 0 0 1  0 0 -1 0 1  0 0 0 1 0" color-interpolation-filters="sRGB" result="source"/>
		<feFlood  style="flood-color:white;flood-opacity:1" result="back"/>
		<feBlend  in="source" in2="back" mode="normal"/>
	</filter>
</defs>
<mask maskUnits="userSpaceOnUse" x="738.2" y="603.2" width="98.4" height="117.5" id="SVGID_5_">
	<g class="st9">
	</g>
</mask>
<path class="st10" d="M796.6,605.2c0,0-32.5-12.4-53.6,24.9c-14.5,25.7,6.9,55.5,21.6,71.6c10.2,11.1,24.3,18.1,39.4,18.9
	c5,0.3,10.3-0.1,15.6-1.5C840.6,713.3,851.1,635.8,796.6,605.2z"/>
<defs>
	<filter id="Adobe_OpacityMaskFilter_5_" filterUnits="userSpaceOnUse" x="1407.9" y="916.5" width="386.6" height="326.2">
		
			<feColorMatrix  type="matrix" values="-1 0 0 0 1  0 -1 0 0 1  0 0 -1 0 1  0 0 0 1 0" color-interpolation-filters="sRGB" result="source"/>
		<feFlood  style="flood-color:white;flood-opacity:1" result="back"/>
		<feBlend  in="source" in2="back" mode="normal"/>
	</filter>
</defs>
<mask maskUnits="userSpaceOnUse" x="1407.9" y="916.5" width="386.6" height="326.2" id="SVGID_6_">
	<g class="st11">
	</g>
</mask>
<path class="st12" d="M1412.5,1013.5c0,0-32.6,58.8,76,155c60,53.2,146.6,69.8,212.1,74c79.8,5.1,124.6-90.4,69.6-148.3
	c-14.3-15.1-33.8-29.6-60.2-42.6c0,0-97.6-10.4-136.9-96C1533.8,870,1403,941.4,1412.5,1013.5z"/>
<defs>
	<filter id="Adobe_OpacityMaskFilter_6_" filterUnits="userSpaceOnUse" x="-207.5" y="488" width="429.5" height="437.8">
		
			<feColorMatrix  type="matrix" values="-1 0 0 0 1  0 -1 0 0 1  0 0 -1 0 1  0 0 0 1 0" color-interpolation-filters="sRGB" result="source"/>
		<feFlood  style="flood-color:white;flood-opacity:1" result="back"/>
		<feBlend  in="source" in2="back" mode="normal"/>
	</filter>
</defs>
<mask maskUnits="userSpaceOnUse" x="-207.5" y="488" width="429.5" height="437.8" id="SVGID_7_">
	<g class="st13">
	</g>
</mask>
<path class="st14" d="M-111.6,914.1c0,0,63.1,50.7,199.4-58.5c75.3-60.3,112.7-159.7,131.1-236.6c22.4-93.6-81.8-166.3-161.8-112.9
	c-20.8,13.9-42,34.1-62.9,62.7c0,0-32.3,113.7-141.8,142.8C-257.2,740.9-199.2,910.7-111.6,914.1z"/>
<defs>
	<filter id="Adobe_OpacityMaskFilter_7_" filterUnits="userSpaceOnUse" x="1433.6" y="344" width="458.6" height="290.9">
		
			<feColorMatrix  type="matrix" values="-1 0 0 0 1  0 -1 0 0 1  0 0 -1 0 1  0 0 0 1 0" color-interpolation-filters="sRGB" result="source"/>
		<feFlood  style="flood-color:white;flood-opacity:1" result="back"/>
		<feBlend  in="source" in2="back" mode="normal"/>
	</filter>
</defs>
<mask maskUnits="userSpaceOnUse" x="1433.6" y="344" width="458.6" height="290.9" id="SVGID_8_">
	<g class="st15">
	</g>
</mask>
<path class="st16" d="M1547.8,346c-44.7-9.2-89.8,14.7-106,57.3c-5.7,14.9-9.3,31.9-7.9,50.4c4.5,62.2,89.1,172.9,137.9,179.4
	s157.8-3.3,185.5-40.7c23.9-32.4,89-95.3,107.4-104.1c18.4-8.8,57.1-136.7-12.1-143.2c-69.2-6.5-132.9,33.9-189.8,27.5
	C1628.8,368.8,1586.1,353.9,1547.8,346z"/>
<defs>
	<filter id="Adobe_OpacityMaskFilter_8_" filterUnits="userSpaceOnUse" x="911.1" y="-174.1" width="369" height="367.3">
		
			<feColorMatrix  type="matrix" values="-1 0 0 0 1  0 -1 0 0 1  0 0 -1 0 1  0 0 0 1 0" color-interpolation-filters="sRGB" result="source"/>
		<feFlood  style="flood-color:white;flood-opacity:1" result="back"/>
		<feBlend  in="source" in2="back" mode="normal"/>
	</filter>
</defs>
<mask maskUnits="userSpaceOnUse" x="911.1" y="-174.1" width="369" height="367.3" id="SVGID_9_">
	<g class="st17">
	</g>
</mask>
<path class="st18" d="M1069,139.3c15.3,38.5,56.1,60.8,96.6,51.9c14.1-3.1,28.9-8.9,42.3-19.2c45-34.5,86.8-154.2,67.3-194.5
	c-19.5-40.3-81.4-118.3-123.7-120.6c-36.5-2-116.9-20-132.8-29.5c-15.9-9.6-132.4,24.9-102.7,80.8c29.7,55.9,92.2,84.1,115.8,130.4
	C1045.8,66.4,1055.9,106.3,1069,139.3z"/>
<defs>
	<filter id="Adobe_OpacityMaskFilter_9_" filterUnits="userSpaceOnUse" x="707.2" y="989.7" width="410.7" height="328">
		
			<feColorMatrix  type="matrix" values="-1 0 0 0 1  0 -1 0 0 1  0 0 -1 0 1  0 0 0 1 0" color-interpolation-filters="sRGB" result="source"/>
		<feFlood  style="flood-color:white;flood-opacity:1" result="back"/>
		<feBlend  in="source" in2="back" mode="normal"/>
	</filter>
</defs>
<mask maskUnits="userSpaceOnUse" x="707.2" y="989.7" width="410.7" height="328" id="SVGID_10_">
	<g class="st19">
	</g>
</mask>
<path class="st20" d="M1029.1,1022.7c0,0-92.7-59.8-142.1-18.6c-49.4,41.2-87.3,146.7-137.1,157.8c-49.9,11.1-65.7,126.1,6.6,148.7
	c50.5,15.8,138.1,1.5,186.6-8.5c22.1-4.6,42.4-15.5,58.5-31.3c20.2-19.9,49.3-48.7,71.6-71.5
	C1111,1160.6,1169.1,1082.1,1029.1,1022.7z"/>
<defs>
	<filter id="Adobe_OpacityMaskFilter_10_" filterUnits="userSpaceOnUse" x="1257.7" y="663.4" width="177.4" height="115.2">
		
			<feColorMatrix  type="matrix" values="-1 0 0 0 1  0 -1 0 0 1  0 0 -1 0 1  0 0 0 1 0" color-interpolation-filters="sRGB" result="source"/>
		<feFlood  style="flood-color:white;flood-opacity:1" result="back"/>
		<feBlend  in="source" in2="back" mode="normal"/>
	</filter>
</defs>
<mask maskUnits="userSpaceOnUse" x="1257.7" y="663.4" width="177.4" height="115.2" id="SVGID_11_">
	<g class="st21">
	</g>
</mask>
<path class="st22" d="M1267.9,735.2c0,0,13.7,43.5,40.3,43.4c26.6-0.1,66.5-23.7,85.2-14c18.8,9.6,54.2-22.8,37.1-49.1
	c-11.9-18.3-43.5-36.9-61.6-46.5c-8.3-4.4-17.6-6.3-26.9-5.5c-11.7,1-28.5,2.5-41.6,3.9C1278.2,669.7,1239,679.4,1267.9,735.2z"/>
<defs>
	<filter id="Adobe_OpacityMaskFilter_11_" filterUnits="userSpaceOnUse" x="504.3" y="914.8" width="159.2" height="228.7">
		
			<feColorMatrix  type="matrix" values="-1 0 0 0 1  0 -1 0 0 1  0 0 -1 0 1  0 0 0 1 0" color-interpolation-filters="sRGB" result="source"/>
		<feFlood  style="flood-color:white;flood-opacity:1" result="back"/>
		<feBlend  in="source" in2="back" mode="normal"/>
	</filter>
</defs>
<mask maskUnits="userSpaceOnUse" x="504.3" y="914.8" width="159.2" height="228.7" id="SVGID_12_">
	<g class="st23">
	</g>
</mask>
<path class="st24" d="M585.9,1137.9c0,0,61.2-6.5,68.2-41.6c7.1-35.2-13.4-94.3,4.4-116.5c17.8-22.2-15.5-77.8-54.9-62.3
	c-27.4,10.8-60.5,47.6-78.1,68.9c-8,9.7-13,21.6-14.5,34.1c-1.8,15.7-4.4,38.4-6.1,56.1C502.1,1106.7,504.3,1161.1,585.9,1137.9z"/>
<defs>
	<filter id="Adobe_OpacityMaskFilter_12_" filterUnits="userSpaceOnUse" x="260.7" y="283" width="239.8" height="262.3">
		
			<feColorMatrix  type="matrix" values="-1 0 0 0 1  0 -1 0 0 1  0 0 -1 0 1  0 0 0 1 0" color-interpolation-filters="sRGB" result="source"/>
		<feFlood  style="flood-color:white;flood-opacity:1" result="back"/>
		<feBlend  in="source" in2="back" mode="normal"/>
	</filter>
</defs>
<mask maskUnits="userSpaceOnUse" x="260.7" y="283" width="239.8" height="262.3" id="SVGID_13_">
	<g class="st25">
	</g>
</mask>
<path class="st26" d="M330.5,541.5c0,0-78.7-46.9-69-95.7c9.8-48.8,80.7-73.1,86.6-90.4s38.8-63.2,70.6-71.7
	c31.8-8.5,101.1,67.3,76.7,140.5C470.9,497.3,391.1,562,330.5,541.5z"/>
<defs>
	<filter id="Adobe_OpacityMaskFilter_13_" filterUnits="userSpaceOnUse" x="1247.9" y="1172.9" width="159.9" height="294.9">
		
			<feColorMatrix  type="matrix" values="-1 0 0 0 1  0 -1 0 0 1  0 0 -1 0 1  0 0 0 1 0" color-interpolation-filters="sRGB" result="source"/>
		<feFlood  style="flood-color:white;flood-opacity:1" result="back"/>
		<feBlend  in="source" in2="back" mode="normal"/>
	</filter>
</defs>
<mask maskUnits="userSpaceOnUse" x="1247.9" y="1172.9" width="159.9" height="294.9" id="SVGID_14_">
	<g class="st27">
	</g>
</mask>
<path class="st28" d="M1257.3,1274.2c0,0-22.8-82.8,2.5-91.9s58.8-32.6,90.4,61.2c31.7,93.8,57.6,196,57.6,196s-3.8,41.9-49.9,23.8
	c-46.1-18-62.2-66.2-62.2-66.2L1257.3,1274.2z"/>
<defs>
	<filter id="Adobe_OpacityMaskFilter_14_" filterUnits="userSpaceOnUse" x="1584.5" y="748.9" width="304.9" height="156">
		
			<feColorMatrix  type="matrix" values="-1 0 0 0 1  0 -1 0 0 1  0 0 -1 0 1  0 0 0 1 0" color-interpolation-filters="sRGB" result="source"/>
		<feFlood  style="flood-color:white;flood-opacity:1" result="back"/>
		<feBlend  in="source" in2="back" mode="normal"/>
	</filter>
</defs>
<mask maskUnits="userSpaceOnUse" x="1584.5" y="748.9" width="304.9" height="156" id="SVGID_15_">
	<g class="st29">
	</g>
</mask>
<path class="st30" d="M1655.8,853.3c0,0-79.2-33.3-70.7-58.8s10.8-66.3,104.1-33.2c93.3,33.1,189.6,76,189.6,76s30.5,28.9-12.1,54
	c-42.7,25.1-90.5,7.9-90.5,7.9L1655.8,853.3z"/>
<defs>
	<filter id="Adobe_OpacityMaskFilter_15_" filterUnits="userSpaceOnUse" x="876.2" y="603.2" width="229.9" height="271.5">
		
			<feColorMatrix  type="matrix" values="-1 0 0 0 1  0 -1 0 0 1  0 0 -1 0 1  0 0 0 1 0" color-interpolation-filters="sRGB" result="source"/>
		<feFlood  style="flood-color:white;flood-opacity:1" result="back"/>
		<feBlend  in="source" in2="back" mode="normal"/>
	</filter>
</defs>
<mask maskUnits="userSpaceOnUse" x="876.2" y="603.2" width="229.9" height="271.5" id="SVGID_16_">
	<g class="st31">
	</g>
</mask>
<path class="st32" d="M1032.3,605c0,0-66.6-20.7-103.4,77.6c-21.9,58.5-38.4,93-48.2,111.4c-6.7,12.6-5.9,27.7,1.9,39.6
	c15.5,23.4,45.5,54.5,87.8,35.1c64-29.4,120.2-81.9,131.8-137.8C1113.7,675,1102.2,614.2,1032.3,605z"/>
<defs>
	<filter id="Adobe_OpacityMaskFilter_16_" filterUnits="userSpaceOnUse" x="318.3" y="560.6" width="319.2" height="272.9">
		
			<feColorMatrix  type="matrix" values="-1 0 0 0 1  0 -1 0 0 1  0 0 -1 0 1  0 0 0 1 0" color-interpolation-filters="sRGB" result="source"/>
		<feFlood  style="flood-color:white;flood-opacity:1" result="back"/>
		<feBlend  in="source" in2="back" mode="normal"/>
	</filter>
</defs>
<mask maskUnits="userSpaceOnUse" x="318.3" y="560.6" width="319.2" height="272.9" id="SVGID_17_">
	<g class="st33">
	</g>
</mask>
<path class="st34" d="M451.4,796.6c0,0-88.9,56.2-108.5,29.9c-19.6-26.3-59.1-57.2,39.5-127.8s209-137.4,209-137.4
	s50.4-10.5,45.8,50c-4.7,60.5-55.3,96.5-55.3,96.5L451.4,796.6z"/>
<defs>
	<filter id="Adobe_OpacityMaskFilter_17_" filterUnits="userSpaceOnUse" x="1745.2" y="176" width="98.4" height="117.5">
		
			<feColorMatrix  type="matrix" values="-1 0 0 0 1  0 -1 0 0 1  0 0 -1 0 1  0 0 0 1 0" color-interpolation-filters="sRGB" result="source"/>
		<feFlood  style="flood-color:white;flood-opacity:1" result="back"/>
		<feBlend  in="source" in2="back" mode="normal"/>
	</filter>
</defs>
<mask maskUnits="userSpaceOnUse" x="1745.2" y="176" width="98.4" height="117.5" id="SVGID_18_">
	<g class="st35">
	</g>
</mask>
<path class="st36" d="M1803.6,178c0,0-32.5-12.4-53.6,24.9c-14.5,25.7,6.9,55.5,21.6,71.6c10.2,11.1,24.3,18.1,39.4,18.9
	c5,0.3,10.3-0.1,15.6-1.5C1847.6,286.2,1858.1,208.7,1803.6,178z"/>
<defs>
	<filter id="Adobe_OpacityMaskFilter_18_" filterUnits="userSpaceOnUse" x="1110.9" y="847.7" width="194.7" height="232.3">
		
			<feColorMatrix  type="matrix" values="-1 0 0 0 1  0 -1 0 0 1  0 0 -1 0 1  0 0 0 1 0" color-interpolation-filters="sRGB" result="source"/>
		<feFlood  style="flood-color:white;flood-opacity:1" result="back"/>
		<feBlend  in="source" in2="back" mode="normal"/>
	</filter>
</defs>
<mask maskUnits="userSpaceOnUse" x="1110.9" y="847.7" width="194.7" height="232.3" id="SVGID_19_">
	<g class="st37">
	</g>
</mask>
<path class="st38" d="M1226.4,851.7c0,0-64.3-24.6-106,49.2c-28.7,50.8,13.6,109.8,42.7,141.5c20.2,22,48,35.9,77.8,37.5
	c9.9,0.5,20.5-0.2,30.9-3C1313.5,1065.5,1334.3,912.2,1226.4,851.7z"/>
<defs>
	<filter id="Adobe_OpacityMaskFilter_19_" filterUnits="userSpaceOnUse" x="1531.5" y="-187" width="304.3" height="234.7">
		
			<feColorMatrix  type="matrix" values="-1 0 0 0 1  0 -1 0 0 1  0 0 -1 0 1  0 0 0 1 0" color-interpolation-filters="sRGB" result="source"/>
		<feFlood  style="flood-color:white;flood-opacity:1" result="back"/>
		<feBlend  in="source" in2="back" mode="normal"/>
	</filter>
</defs>
<mask maskUnits="userSpaceOnUse" x="1531.5" y="-187" width="304.3" height="234.7" id="SVGID_20_">
	<g class="st39">
	</g>
</mask>
<path class="st40" d="M1635.8-186.7c0,0,66.7-5.4,104.5,26.4c27.6,23.2,67.3,87,86.7,119.7c11.9,20,11.8,45.2-1.1,64.6
	c-8.5,12.8-22.7,23.4-46.3,23.6c-42.2,0.5-138.2-34.4-191.8-55.2c-30.3-11.8-51.7-39.2-55.5-71.5c-2.3-19.8,0-41.2,14.1-57.5
	C1581.7-177.7,1635.8-186.7,1635.8-186.7z"/>
<defs>
	<filter id="Adobe_OpacityMaskFilter_20_" filterUnits="userSpaceOnUse" x="351.9" y="-258.6" width="386.6" height="326.2">
		
			<feColorMatrix  type="matrix" values="-1 0 0 0 1  0 -1 0 0 1  0 0 -1 0 1  0 0 0 1 0" color-interpolation-filters="sRGB" result="source"/>
		<feFlood  style="flood-color:white;flood-opacity:1" result="back"/>
		<feBlend  in="source" in2="back" mode="normal"/>
	</filter>
</defs>
<mask maskUnits="userSpaceOnUse" x="351.9" y="-258.6" width="386.6" height="326.2" id="SVGID_21_">
	<g class="st41">
	</g>
</mask>
<path class="st42" d="M356.5-161.5c0,0-32.6,58.8,76,155c60,53.2,146.6,69.8,212.1,74c79.8,5.1,124.6-90.4,69.6-148.3
	c-14.3-15.1-33.8-29.6-60.2-42.6c0,0-97.6-10.4-136.9-96S347-233.6,356.5-161.5z"/>
<defs>
	<filter id="Adobe_OpacityMaskFilter_21_" filterUnits="userSpaceOnUse" x="177.3" y="-110.9" width="159.9" height="294.9">
		
			<feColorMatrix  type="matrix" values="-1 0 0 0 1  0 -1 0 0 1  0 0 -1 0 1  0 0 0 1 0" color-interpolation-filters="sRGB" result="source"/>
		<feFlood  style="flood-color:white;flood-opacity:1" result="back"/>
		<feBlend  in="source" in2="back" mode="normal"/>
	</filter>
</defs>
<mask maskUnits="userSpaceOnUse" x="177.3" y="-110.9" width="159.9" height="294.9" id="SVGID_22_">
	<g class="st43">
	</g>
</mask>
<path class="st44" d="M186.7-9.6c0,0-22.8-82.8,2.5-91.9s58.8-32.6,90.4,61.2s57.6,196,57.6,196s-3.8,41.9-49.9,23.8
	S225,113.4,225,113.4L186.7-9.6z"/>
<defs>
	<filter id="Adobe_OpacityMaskFilter_22_" filterUnits="userSpaceOnUse" x="1367.4" y="-41.1" width="269.7" height="216.8">
		
			<feColorMatrix  type="matrix" values="-1 0 0 0 1  0 -1 0 0 1  0 0 -1 0 1  0 0 0 1 0" color-interpolation-filters="sRGB" result="source"/>
		<feFlood  style="flood-color:white;flood-opacity:1" result="back"/>
		<feBlend  in="source" in2="back" mode="normal"/>
	</filter>
</defs>
<mask maskUnits="userSpaceOnUse" x="1367.4" y="-41.1" width="269.7" height="216.8" id="SVGID_23_">
	<g class="st45">
	</g>
</mask>
<path class="st46" d="M1417.5,68.7c0,0-63.8-57.5-47.4-78.7s32-59.1,109.2,2.9s154,134.1,154,134.1s19.3,37.3-29.2,47
	c-48.6,9.6-88-22.3-88-22.3L1417.5,68.7z"/>
<defs>
	<filter id="Adobe_OpacityMaskFilter_23_" filterUnits="userSpaceOnUse" x="945.2" y="1349.7" width="222.8" height="243.7">
		
			<feColorMatrix  type="matrix" values="-1 0 0 0 1  0 -1 0 0 1  0 0 -1 0 1  0 0 0 1 0" color-interpolation-filters="sRGB" result="source"/>
		<feFlood  style="flood-color:white;flood-opacity:1" result="back"/>
		<feBlend  in="source" in2="back" mode="normal"/>
	</filter>
</defs>
<mask maskUnits="userSpaceOnUse" x="945.2" y="1349.7" width="222.8" height="243.7" id="SVGID_24_">
	<g class="st47">
	</g>
</mask>
<path class="st48" d="M1010,1589.7c0,0-73.1-43.6-64.1-88.9c9.1-45.3,75-67.9,80.4-84c5.4-16.1,36-58.7,65.6-66.6
	c29.6-7.9,93.9,62.5,71.2,130.5C1140.4,1548.7,1066.3,1608.8,1010,1589.7z"/>
<defs>
	<filter id="Adobe_OpacityMaskFilter_24_" filterUnits="userSpaceOnUse" x="1531.8" y="1387" width="304.3" height="234.7">
		
			<feColorMatrix  type="matrix" values="-1 0 0 0 1  0 -1 0 0 1  0 0 -1 0 1  0 0 0 1 0" color-interpolation-filters="sRGB" result="source"/>
		<feFlood  style="flood-color:white;flood-opacity:1" result="back"/>
		<feBlend  in="source" in2="back" mode="normal"/>
	</filter>
</defs>
<mask maskUnits="userSpaceOnUse" x="1531.8" y="1387" width="304.3" height="234.7" id="SVGID_25_">
	<g class="st49">
	</g>
</mask>
<path class="st50" d="M1636.1,1387.3c0,0,66.7-5.4,104.5,26.4c27.6,23.2,67.3,87,86.7,119.7c11.9,20,11.8,45.2-1.1,64.6
	c-8.5,12.8-22.7,23.4-46.3,23.6c-42.2,0.5-138.2-34.4-191.8-55.2c-30.3-11.8-51.7-39.2-55.5-71.5c-2.3-19.8,0-41.2,14.1-57.5
	C1582,1396.3,1636.1,1387.3,1636.1,1387.3z"/>
<defs>
	<filter id="Adobe_OpacityMaskFilter_25_" filterUnits="userSpaceOnUse" x="1794.3" y="1272.3" width="119.8" height="95.5">
		
			<feColorMatrix  type="matrix" values="-1 0 0 0 1  0 -1 0 0 1  0 0 -1 0 1  0 0 0 1 0" color-interpolation-filters="sRGB" result="source"/>
		<feFlood  style="flood-color:white;flood-opacity:1" result="back"/>
		<feBlend  in="source" in2="back" mode="normal"/>
	</filter>
</defs>
<mask maskUnits="userSpaceOnUse" x="1794.3" y="1272.3" width="119.8" height="95.5" id="SVGID_26_">
	<g class="st51">
	</g>
</mask>
<path class="st52" d="M1797.9,1304.9c0,0-15.9,31,19,55.9c24,17.2,55.9-0.9,73.5-13.8c12.2-8.9,20.6-22.2,23.1-37.1
	c0.8-5,1-10.3,0.2-15.7C1910.1,1272.8,1834.2,1254,1797.9,1304.9z"/>
<defs>
	<filter id="Adobe_OpacityMaskFilter_26_" filterUnits="userSpaceOnUse" x="1111.4" y="1590.8" width="414.7" height="275.9">
		
			<feColorMatrix  type="matrix" values="-1 0 0 0 1  0 -1 0 0 1  0 0 -1 0 1  0 0 0 1 0" color-interpolation-filters="sRGB" result="source"/>
		<feFlood  style="flood-color:white;flood-opacity:1" result="back"/>
		<feBlend  in="source" in2="back" mode="normal"/>
	</filter>
</defs>
<mask maskUnits="userSpaceOnUse" x="1111.4" y="1590.8" width="414.7" height="275.9" id="SVGID_27_">
	<g class="st53">
	</g>
</mask>
<path class="st54" d="M1146.7,1825.3c0,0,26.7,61.7,169.1,34.5c78.8-15,144.8-73.5,188.1-122.8c52.8-60,4.5-153.9-75-145.7
	c-20.7,2.1-44.1,8.7-70.5,21.6c0,0-67.9,70.9-159.6,49.8S1083.8,1788.8,1146.7,1825.3z"/>
<defs>
	<filter id="Adobe_OpacityMaskFilter_27_" filterUnits="userSpaceOnUse" x="736.9" y="1598.8" width="269.6" height="352.7">
		
			<feColorMatrix  type="matrix" values="-1 0 0 0 1  0 -1 0 0 1  0 0 -1 0 1  0 0 0 1 0" color-interpolation-filters="sRGB" result="source"/>
		<feFlood  style="flood-color:white;flood-opacity:1" result="back"/>
		<feBlend  in="source" in2="back" mode="normal"/>
	</filter>
</defs>
<mask maskUnits="userSpaceOnUse" x="736.9" y="1598.8" width="269.6" height="352.7" id="SVGID_28_">
	<g class="st55">
	</g>
</mask>
<path class="st56" d="M770.8,1668c0,0-55.8,74.3-24.2,118.3c31.6,44,118,82.2,124.2,124.8c6.3,42.6,101.9,62.9,125.3,3.5
	c16.3-41.4,9.7-115.9,4.2-157.3c-2.5-18.9-10.4-36.6-22.8-51.1c-15.5-18.2-37.9-44.4-55.7-64.5
	C891.6,1607.5,829.2,1553.9,770.8,1668z"/>
<defs>
	<filter id="Adobe_OpacityMaskFilter_28_" filterUnits="userSpaceOnUse" x="409.6" y="1297.6" width="320.1" height="289.7">
		
			<feColorMatrix  type="matrix" values="-1 0 0 0 1  0 -1 0 0 1  0 0 -1 0 1  0 0 0 1 0" color-interpolation-filters="sRGB" result="source"/>
		<feFlood  style="flood-color:white;flood-opacity:1" result="back"/>
		<feBlend  in="source" in2="back" mode="normal"/>
	</filter>
</defs>
<mask maskUnits="userSpaceOnUse" x="409.6" y="1297.6" width="320.1" height="289.7" id="SVGID_29_">
	<g class="st57">
	</g>
</mask>
<path class="st58" d="M508.3,1297.6c0,0-96.9,13-98.7,133.2c-1.3,82.8,91.4,127.6,149.2,147.4c40.1,13.8,84.1,12.1,122.4-6.1
	c12.7-6.1,25.4-14.1,36.4-24.7C761.7,1505,683.7,1299.9,508.3,1297.6z"/>
<defs>
	<filter id="Adobe_OpacityMaskFilter_29_" filterUnits="userSpaceOnUse" x="199.8" y="1158.4" width="206.8" height="277.6">
		
			<feColorMatrix  type="matrix" values="-1 0 0 0 1  0 -1 0 0 1  0 0 -1 0 1  0 0 0 1 0" color-interpolation-filters="sRGB" result="source"/>
		<feFlood  style="flood-color:white;flood-opacity:1" result="back"/>
		<feBlend  in="source" in2="back" mode="normal"/>
	</filter>
</defs>
<mask maskUnits="userSpaceOnUse" x="199.8" y="1158.4" width="206.8" height="277.6" id="SVGID_30_">
	<g class="st59">
	</g>
</mask>
<path class="st60" d="M297.3,1212.4c0,0,53.8-67,75.9-51.8c22.1,15.2,60.8,28.6,3.3,109.2s-125.1,161.4-125.1,161.4
	s-36.2,21.4-48.6-26.5c-12.4-47.9,17.2-89.2,17.2-89.2L297.3,1212.4z"/>
<defs>
	<filter id="Adobe_OpacityMaskFilter_30_" filterUnits="userSpaceOnUse" x="-147.8" y="1054.1" width="295.3" height="238.2">
		
			<feColorMatrix  type="matrix" values="-1 0 0 0 1  0 -1 0 0 1  0 0 -1 0 1  0 0 0 1 0" color-interpolation-filters="sRGB" result="source"/>
		<feFlood  style="flood-color:white;flood-opacity:1" result="back"/>
		<feBlend  in="source" in2="back" mode="normal"/>
	</filter>
</defs>
<mask maskUnits="userSpaceOnUse" x="-147.8" y="1054.1" width="295.3" height="238.2" id="SVGID_31_">
	<g class="st61">
	</g>
</mask>
<path class="st62" d="M136.4,1207.3c0,0-30.9,59.4-77.9,74.6c-34.3,11.1-109.4,10.9-147.5,9.9c-23.3-0.6-44.6-14.1-54.2-35.3
	c-6.3-14-7.8-31.6,4.6-51.8c22-36,102.5-98.9,148.7-133.2c26-19.4,60.7-23,90-9.1c18,8.6,34.9,21.9,41.3,42.4
	C157.5,1156.7,136.4,1207.3,136.4,1207.3z"/>
<defs>
	<filter id="Adobe_OpacityMaskFilter_31_" filterUnits="userSpaceOnUse" x="-36.6" y="1493.9" width="369" height="367.3">
		
			<feColorMatrix  type="matrix" values="-1 0 0 0 1  0 -1 0 0 1  0 0 -1 0 1  0 0 0 1 0" color-interpolation-filters="sRGB" result="source"/>
		<feFlood  style="flood-color:white;flood-opacity:1" result="back"/>
		<feBlend  in="source" in2="back" mode="normal"/>
	</filter>
</defs>
<mask maskUnits="userSpaceOnUse" x="-36.6" y="1493.9" width="369" height="367.3" id="SVGID_32_">
	<g class="st63">
	</g>
</mask>
<path class="st64" d="M121.3,1807.3c15.3,38.5,56.1,60.8,96.6,51.9c14.1-3.1,28.9-8.9,42.3-19.2c45-34.5,86.8-154.2,67.3-194.5
	c-19.5-40.3-81.4-118.3-123.7-120.6c-36.5-2-116.9-20-132.8-29.5c-15.9-9.6-132.4,24.9-102.7,80.8c29.7,55.9,92.2,84.1,115.8,130.4
	C98.1,1734.4,108.2,1774.3,121.3,1807.3z"/>
<defs>
	<filter id="Adobe_OpacityMaskFilter_32_" filterUnits="userSpaceOnUse" x="1245" y="484.3" width="109.1" height="108.8">
		
			<feColorMatrix  type="matrix" values="-1 0 0 0 1  0 -1 0 0 1  0 0 -1 0 1  0 0 0 1 0" color-interpolation-filters="sRGB" result="source"/>
		<feFlood  style="flood-color:white;flood-opacity:1" result="back"/>
		<feBlend  in="source" in2="back" mode="normal"/>
	</filter>
</defs>
<mask maskUnits="userSpaceOnUse" x="1245" y="484.3" width="109.1" height="108.8" id="SVGID_33_">
	<g class="st65">
	</g>
</mask>
<path class="st66" d="M1354.1,527.9c0,0,1.5-34.8-40.6-42.9c-29-5.6-50.5,24.1-61,43.1c-7.3,13.2-9.5,28.8-5.5,43.3
	c1.3,4.8,3.4,9.8,6.4,14.3C1265.5,603.9,1342.3,589.3,1354.1,527.9z"/>
<defs>
	<filter id="Adobe_OpacityMaskFilter_33_" filterUnits="userSpaceOnUse" x="1637.1" y="1674.1" width="281.7" height="201.1">
		
			<feColorMatrix  type="matrix" values="-1 0 0 0 1  0 -1 0 0 1  0 0 -1 0 1  0 0 0 1 0" color-interpolation-filters="sRGB" result="source"/>
		<feFlood  style="flood-color:white;flood-opacity:1" result="back"/>
		<feBlend  in="source" in2="back" mode="normal"/>
	</filter>
</defs>
<mask maskUnits="userSpaceOnUse" x="1637.1" y="1674.1" width="281.7" height="201.1" id="SVGID_34_">
	<g class="st67">
	</g>
</mask>
<path class="st68" d="M1693.3,1783.1c0,0-68.6-51.7-54.2-74.2c14.4-22.6,26.6-61.7,109-6.8s165.3,120,165.3,120s22.6,35.5-25,49.4
	c-47.5,13.9-89.7-14.4-89.7-14.4L1693.3,1783.1z"/>
<defs>
	<filter id="Adobe_OpacityMaskFilter_34_" filterUnits="userSpaceOnUse" x="415.3" y="1717.9" width="177.4" height="115.2">
		
			<feColorMatrix  type="matrix" values="-1 0 0 0 1  0 -1 0 0 1  0 0 -1 0 1  0 0 0 1 0" color-interpolation-filters="sRGB" result="source"/>
		<feFlood  style="flood-color:white;flood-opacity:1" result="back"/>
		<feBlend  in="source" in2="back" mode="normal"/>
	</filter>
</defs>
<mask maskUnits="userSpaceOnUse" x="415.3" y="1717.9" width="177.4" height="115.2" id="SVGID_35_">
	<g class="st69">
	</g>
</mask>
<path class="st70" d="M425.6,1789.8c0,0,13.7,43.5,40.3,43.4s66.5-23.7,85.2-14c18.8,9.6,54.2-22.8,37.1-49.1
	c-11.9-18.3-43.5-36.9-61.6-46.5c-8.3-4.4-17.6-6.3-26.9-5.5c-11.7,1-28.5,2.5-41.6,3.9C435.9,1724.3,396.7,1734,425.6,1789.8z"/>
<defs>
	<filter id="Adobe_OpacityMaskFilter_35_" filterUnits="userSpaceOnUse" x="415.9" y="117.6" width="177.4" height="115.2">
		
			<feColorMatrix  type="matrix" values="-1 0 0 0 1  0 -1 0 0 1  0 0 -1 0 1  0 0 0 1 0" color-interpolation-filters="sRGB" result="source"/>
		<feFlood  style="flood-color:white;flood-opacity:1" result="back"/>
		<feBlend  in="source" in2="back" mode="normal"/>
	</filter>
</defs>
<mask maskUnits="userSpaceOnUse" x="415.9" y="117.6" width="177.4" height="115.2" id="SVGID_36_">
	<g class="st71">
	</g>
</mask>
<path class="st72" d="M426.1,189.5c0,0,13.7,43.5,40.3,43.4c26.6-0.1,66.5-23.7,85.2-14c18.8,9.6,54.2-22.8,37.1-49.1
	c-11.9-18.3-43.5-36.9-61.6-46.5c-8.3-4.4-17.6-6.3-26.9-5.5c-11.7,1-28.5,2.5-41.6,3.9C436.4,124,397.2,133.6,426.1,189.5z"/>
</svg>
